<svg xmlns="http://www.w3.org/2000/svg" width="1472.4917" height="1062" viewBox="0 0 1472.4917 1062"><defs><style>.a{fill:#a7c4e4;}.b{fill:#2c4482;}.c{fill:#4367c7;}.d{fill:#355baf;}.e{fill:#8db0da;}.f{fill:#6792b7;}.g{fill:#52517b;}.h{fill:#d1e7f4;}.i{fill:#092140;}.j{fill:#292951;}.k{fill:#f7e2a6;}.l{fill:#ffd22e;}.m{fill:#f0a32f;}.n{fill:#f2f2f2;}.o{fill:#d91b5c;}.p{fill:#45446c;}.q{fill:#81a4c6;}.r{fill:#2c2b57;}.s{fill:#fe912a;}.t{fill:#60c0fd;}.u{fill:#bc4074;}.v{fill:#ffaa81;}.w{fill:#d64980;}.x{fill:#fcbd24;}.y{fill:#f8c22e;}.z{fill:#bc9371;}.aa{fill:#ceab8b;}.ab{fill:#492817;}.ac{fill:#230e04;}.ad{fill:#34b2e4;}.ae{fill:#7a8eff;}.af{fill:#1f4a6f;}.ag{fill:#bd0006;}.ah{fill:#555584;}.ai{fill:#efe0d3;}.aj{fill:#e2d0c3;}.ak{fill:#3b3b60;}.al{fill:#6d64ff;}.am{fill:#915151;}.an{fill:#824949;}.ao{fill:#f4c327;}</style></defs><path class="a" d="M833.0148,838.3205H245.352A18.1521,18.1521,0,0,1,227.69,824.3563l-90.317-380.9192a18.152,18.152,0,0,1,17.6622-22.34H742.6975A18.1521,18.1521,0,0,1,760.36,435.0615l90.3172,380.9192A18.1522,18.1522,0,0,1,833.0148,838.3205Z"></path><path class="b" d="M853.2215,838.3205H253.4984a12.2844,12.2844,0,0,1-11.9531-9.45l-93.1-392.6542a12.2847,12.2847,0,0,1,11.9532-15.1187h599.723a12.2844,12.2844,0,0,1,11.9531,9.4505l93.1,392.6542A12.2845,12.2845,0,0,1,853.2215,838.3205Z"></path><polygon class="c" points="835.986 801.425 263.888 801.425 180.371 442.386 752.47 442.386 835.986 801.425"></polygon><path class="d" d="M180.3713,442.3859l83.5163,359.0394h294.096C484.5545,728.5074,180.3713,442.3859,180.3713,442.3859Z"></path><path class="e" d="M252.3968,829.3171h912.5763a7.924,7.924,0,0,1,7.924,7.924v14.99a7.9242,7.9242,0,0,1-7.9242,7.9242H252.3968a9.4887,9.4887,0,0,1-9.4887-9.4887V838.8058A9.4887,9.4887,0,0,1,252.3968,829.3171Z"></path><path class="f" d="M239.41,829.3171h302.74a7.7864,7.7864,0,0,1,7.7864,7.7864v15.2654a7.7864,7.7864,0,0,1-7.7864,7.7864H239.41a9.4887,9.4887,0,0,1-9.4887-9.4887V838.8058A9.4887,9.4887,0,0,1,239.41,829.3171Z"></path><path class="g" d="M311.9145,851.3592H279.745a6.6425,6.6425,0,0,1-6.6231-6.623h0a6.6425,6.6425,0,0,1,6.6231-6.6232h32.1695a6.6425,6.6425,0,0,1,6.623,6.6232h0A6.6425,6.6425,0,0,1,311.9145,851.3592Z"></path><path class="g" d="M348.6917,843.44a6.6281,6.6281,0,1,1-5.2033-5.204A6.6343,6.6343,0,0,1,348.6917,843.44Z"></path><path class="g" d="M368.561,843.44a6.6281,6.6281,0,1,1-5.2038-5.2036A6.6343,6.6343,0,0,1,368.561,843.44Z"></path><path class="f" d="M953.2048,848.0476H802.7654a3.3212,3.3212,0,0,1-3.3115-3.3114h0a3.3212,3.3212,0,0,1,3.3115-3.3116H953.2048a3.3213,3.3213,0,0,1,3.3115,3.3116h0A3.3212,3.3212,0,0,1,953.2048,848.0476Z"></path><path class="h" d="M1128.4365,281.6765c-8.0727-13.0762-14.3785-27.5684-15.8208-42.868-2.6715-28.3387,11.8509-56.1328,32.17-76.0666,36.8429-36.1445,94.0823-49.9224,143.3371-34.5019,42.6006,13.3371,79.9358,52.5937,77.6148,97.1728-.7,13.4462-4.8459,26.4945-10.0375,38.9177-6.7939,16.2578-15.5979,31.9536-28.1146,44.3553-22.2028,21.9989-50.84,33.1562-81.87,36.9015s-61.7761,4.9457-96.6273,4.9457c6.1651-.81,17.971-5.91,22.0231-10.7544,7.8-9.3259,2.98-8.9982-6.0111-16.4985A171.9714,171.9714,0,0,1,1128.4365,281.6765Z"></path><polygon class="h" points="303.255 781.77 267.659 805.325 303.175 829.001 303.255 781.77"></polygon><polygon class="i" points="277.77 798.634 267.659 805.325 277.747 812.051 277.77 798.634"></polygon><rect class="j" x="436.606" y="767.02" width="47.2317" height="77.2641" rx="9.662" transform="translate(1266.6544 346.7992) rotate(90.0973)"></rect><rect class="k" x="360.6386" y="724.4833" width="15.7439" height="130.5382" transform="translate(-421.866 1156.9223) rotate(-89.9028)"></rect><rect class="l" x="360.6118" y="740.2272" width="15.7439" height="130.5382" transform="translate(-437.6375 1172.6109) rotate(-89.9026)"></rect><rect class="m" x="360.5851" y="755.971" width="15.7438" height="130.5382" transform="translate(-453.4073 1188.3025) rotate(-89.9027)"></rect><rect class="n" x="408.9551" y="800.8422" width="47.2317" height="9.5258" transform="translate(1238.9101 374.4042) rotate(90.0974)"></rect><polygon class="a" points="447.18 578.505 250.997 578.505 221.4 474.705 417.583 474.705 447.18 578.505"></polygon><path class="o" d="M358.7016,558.7674H325.2762c-14.9867,0-30.66-11.9629-34.8285-26.5841l-3.1814-11.1573c-4.169-14.6213,4.6819-26.5841,19.6686-26.5841H340.36c14.9866,0,30.6594,11.9628,34.8285,26.5841l3.1812,11.1573C382.5391,546.8045,373.6882,558.7674,358.7016,558.7674Z"></path><path class="n" d="M321.2031,509.2664l25.6376,14.4913c1.67.9437,2.2933,2.9448,1.2334,3.9579l-16.9,16.1524c-1.2977,1.24-4.0174.0919-4.5972-1.9417l-8.7376-30.6438C317.2759,509.3071,319.2171,508.1437,321.2031,509.2664Z"></path><path class="p" d="M466.9419,777.6109H621.24l-8.4437,50.372h6.8762l33.53-200.0239a23.6042,23.6042,0,0,0-23.2787-27.5054H509.7382A23.5339,23.5339,0,0,0,486.46,620.155L451.6218,829.3171h6.8763Zm.8526-5.0859L493.148,621.2758a16.7715,16.7715,0,0,1,16.59-14.041H629.9231a16.8218,16.8218,0,0,1,16.59,19.6034L622.0921,772.525Z"></path><path class="f" d="M433.7883,660.4063H607.2922L663.8982,353.79H511.0149S473.44,586.9939,433.7883,660.4063Z"></path><polygon class="p" points="470.431 666.264 647.121 666.264 687.952 353.79 511.261 353.79 470.431 666.264"></polygon><polygon class="q" points="752.393 666.264 570.151 666.264 512.064 353.79 694.307 353.79 752.393 666.264"></polygon><path class="q" d="M600.3693,809.6156,563.6666,590.6631a23.6041,23.6041,0,0,1,23.2787-27.5058h120.184a23.534,23.534,0,0,1,23.28,19.7015l36.7028,218.9529a23.6042,23.6042,0,0,1-23.2787,27.5054H623.648A23.534,23.534,0,0,1,600.3693,809.6156Zm-13.424-239.6772a16.8219,16.8219,0,0,0-16.59,19.6034l36.7028,218.9529a16.7715,16.7715,0,0,0,16.59,14.0412H743.8329a16.8217,16.8217,0,0,0,16.59-19.6034L723.72,583.98a16.7724,16.7724,0,0,0-16.5911-14.0412Z"></path><path class="n" d="M511.8342,353.79H697.4118s42.19,228.2752,82.6316,303.15H593.2049C557.19,581.8341,518.4223,393.0583,511.8342,353.79Z"></path><path class="e" d="M511.81,344.15H697.7532c2.7538,0,5.0209,3.7,5.0209,8.264s-1.5607,8.2642-5.0209,8.2642H511.81Z"></path><path class="r" d="M515.8111,352.3062c0,4.5644-1.7912,8.2646-4.0007,8.2646s-4.0009-3.7-4.0009-8.2646,1.7913-8.2645,4.0009-8.2645S515.8111,347.7419,515.8111,352.3062Z"></path><path class="l" d="M622.54,429.7459q1.437-.3,2.8978-.4642c19.4275-2.1825,37.2266,14.2976,38.986,29.96.7184,6.394-1.95,11.7412-4.0428,17.6131-2.3411,6.5683-4.4118,13.2188-6.5906,19.84-1.0084,3.072-2.8425,6.593-2.9641,9.8024a10.8454,10.8454,0,0,0,.0684,1.5014L618.2122,511.67a12.77,12.77,0,0,0-1.3847-3.5516c-6.032-10.071-11.9717-20.1522-18.43-29.939C586.0015,459.3944,602.331,433.96,622.54,429.7459Z"></path><path class="s" d="M614.5761,483.7692c2.524,1.656,5.4293,1.2987,8.0792.1965a52.4773,52.4773,0,0,1,1.4594,6.2084c.227,1.1828.4417,2.3.6839,3.2772l4.4161,17.8215,1.5748-.3894-4.4161-17.8216c-.2321-.9357-.4424-2.0322-.6653-3.1932a51.9161,51.9161,0,0,0-1.5755-6.6023,28.3291,28.3291,0,0,0,5.5186-3.957l-.0016-.0018a16.0766,16.0766,0,0,0,1.425-1.21c.1285.0791.2561.1551.3819.23a26.6082,26.6082,0,0,0,7.7444,3.3119q-.0206.334-.0375.6632c-.1152,2.2447-.1588,4.5239-.2009,6.7274l-.4024,20.98,1.6219.03.4026-20.98c.0419-2.1908.0856-4.4552.1992-6.6741.008-.16.0167-.32.0259-.4792a12.7251,12.7251,0,0,0,3.4515-.0593,7.2834,7.2834,0,0,0,4.0755-1.8564,4.4888,4.4888,0,0,0,1.24-4.5369,4.44,4.44,0,0,0-5.2851-2.54,6.5852,6.5852,0,0,0-4.1718,3.9884,12.1245,12.1245,0,0,0-.7711,3.1071,25.4681,25.4681,0,0,1-7.0608-3.0742c-.0246-.0152-.049-.03-.0741-.0448a16.851,16.851,0,0,0,1.951-2.8208,7.1751,7.1751,0,0,0,1.029-3.3942,4.7131,4.7131,0,0,0-8.9109-2.1213,6.003,6.003,0,0,0,.7154,6.0422,10.9164,10.9164,0,0,0,2.6773,2.5888,14.7371,14.7371,0,0,1-1.1829.9693l.0063.0086a27.1144,27.1144,0,0,1-4.9475,3.5583,10.4514,10.4514,0,0,0-3.2667-4.4823,5.2352,5.2352,0,0,0-5.34-.5862,4.2047,4.2047,0,0,0-2.5654,3.3786C612.3191,480.8493,612.5239,482.4215,614.5761,483.7692Zm26.3713-3.4791a10.5486,10.5486,0,0,1,.6724-2.7695,4.9635,4.9635,0,0,1,3.09-3.038,2.8952,2.8952,0,0,1,3.3335,1.5012,2.8472,2.8472,0,0,1-.8421,2.8493,5.72,5.72,0,0,1-3.1911,1.4127A11.33,11.33,0,0,1,640.9474,480.29Zm-12.62-6.624a4.3771,4.3771,0,0,1-.5993-4.374,3.2153,3.2153,0,0,1,2.4765-1.6576,2.89,2.89,0,0,1,.9926.0564,3.2053,3.2053,0,0,1,2.375,2.9927,5.6737,5.6737,0,0,1-.8285,2.6043,15.195,15.195,0,0,1-1.9142,2.7231A9.6971,9.6971,0,0,1,628.3271,473.6661Zm-14.33,6.4857a2.6315,2.6315,0,0,1,1.628-2.0258,3.6232,3.6232,0,0,1,3.7023.4237,8.9566,8.9566,0,0,1,2.7616,3.8781c-2.2364.9431-4.6427,1.2857-6.6232-.0148A2.616,2.616,0,0,1,613.9975,480.1518Z"></path><path class="t" d="M617.9736,511.0572l32.8151-3.6864c.0292.5092.0783,1.0178.1409,1.5245.5591,4.52,2.3259,10.15.7131,14.5263-1.6658,4.5193-5.1674,13.23-10.8168,13.864l-6.5555.7365c-5.5475.6226-13.2187-8.31-14.65-13.1248A11.314,11.314,0,0,1,619.28,522.9C618.884,519.2977,619.033,514.7873,617.9736,511.0572Z"></path><path class="m" d="M693.25,471.9726a1.0817,1.0817,0,0,0-.2251-2.1187l-19.5115-1.3349a1.0818,1.0818,0,0,0-.147,2.1585l19.5115,1.3349A1.0955,1.0955,0,0,0,693.25,471.9726Z"></path><path class="m" d="M669.2893,440.7852a1.0758,1.0758,0,0,0,.255-.1106l18.2565-10.8694a1.0812,1.0812,0,1,0-1.1061-1.858l-18.2565,10.87a1.0812,1.0812,0,0,0,.8511,1.9685Z"></path><path class="m" d="M652.7656,424.2725a1.0785,1.0785,0,0,0,.6829-.5851l8.22-17.7388a1.0811,1.0811,0,1,0-1.9619-.9089l-8.22,17.7388a1.0812,1.0812,0,0,0,1.279,1.494Z"></path><path class="m" d="M621.0983,423.0534a1.0811,1.0811,0,0,0,.7409-1.3379L616.3659,402.66a1.0814,1.0814,0,0,0-2.0788.597l5.4732,19.0559A1.0811,1.0811,0,0,0,621.0983,423.0534Z"></path><path class="s" d="M596.9714,435.8754a1.0815,1.0815,0,0,0,.2952-1.9429l-16.8758-11.0934a1.0815,1.0815,0,1,0-1.1885,1.8071L596.0781,435.74A1.0786,1.0786,0,0,0,596.9714,435.8754Z"></path><path class="m" d="M585.3967,461.51a1.0817,1.0817,0,0,0-.4416-2.1115l-19.333,2.552a1.0817,1.0817,0,0,0,.2832,2.1448l19.3329-2.5519A1.2039,1.2039,0,0,0,585.3967,461.51Z"></path><path class="u" d="M377.81,267.6871l.1149,1.5087a118.7358,118.7358,0,0,0-13.3123,1.7975l-.285-1.484A120.3765,120.3765,0,0,1,377.81,267.6871Zm-26.6905,5.0552.43,1.45c-4.21,1.25-8.49,2.7309-12.7193,4.4036l-.557-1.4059C342.5442,275.5015,346.867,274.0041,351.1192,272.7423Zm-25.2675,9.9583.6668,1.3555c-4.0011,1.97-7.9894,4.13-11.8515,6.417l-.7691-1.3021C317.7928,286.8647,321.8143,284.6875,325.8517,282.7006ZM302.4768,296.53l.8684,1.2385c-3.1817,2.2287-6.2842,4.562-9.219,6.9356q-.7512.6063-1.4946,1.222l-.9655-1.1641q.75-.6222,1.5088-1.2348C296.1377,301.1328,299.2673,298.7782,302.4768,296.53Zm12.4718,17.28a50.38,50.38,0,0,1,11.86,6.3248l-.8837,1.2278a48.8814,48.8814,0,0,0-11.5051-6.1357l-.2271-.0839.5161-1.4214ZM301.38,310.6631l-.1573,1.5036a62.2472,62.2472,0,0,0-13.34.0807l-.1674-1.5033A63.7324,63.7324,0,0,1,301.38,310.6631Zm35.2035,19.0762a56.7946,56.7946,0,0,1,6.8263,11.8569l-1.39.5959a55.2637,55.2637,0,0,0-6.6432-11.5413Zm-54.8609-15.6719,1.1077,1.0279a64.5763,64.5763,0,0,0-8.1011,10.6111l-1.2945-.781A65.9987,65.9987,0,0,1,281.7221,314.0674Zm-7.3655-.4953.4514,1.4435a73.4054,73.4054,0,0,0-12.3475,5.1429l-.7057-1.3367A74.9421,74.9421,0,0,1,274.3566,313.5721Zm72.96,41.1369a49.6484,49.6484,0,0,1,.5319,13.6834l-1.5044-.1592a48.1285,48.1285,0,0,0-.5172-13.2668ZM250.335,326.3084l.9472,1.1794a80.3984,80.3984,0,0,0-9.6956,9.2313l-1.1285-1.0059A81.8711,81.8711,0,0,1,250.335,326.3084Zm19.2714,11.5986a42.378,42.378,0,0,0-.9064,13.2l-1.5069.1265a43.8973,43.8973,0,0,1,.94-13.671Zm73.086,42.9827,1.3439.69a32.0535,32.0535,0,0,1-4.4421,6.537,32.5383,32.5383,0,0,1-4.3032,4.0686l-.9348-1.1873a31.1347,31.1347,0,0,0,4.1035-3.88A30.6813,30.6813,0,0,0,342.6924,380.89Zm-110.4892-34.33,1.2685.8246a101.3128,101.3128,0,0,0-6.54,11.7175l-1.3654-.65A102.9775,102.9775,0,0,1,232.2032,346.5593Zm39.3691,17.5262a56.6045,56.6045,0,0,0,5.9654,11.9128l-1.2648.83a58.1462,58.1462,0,0,1-6.1241-12.231Zm51.0456,32.84.4089,1.4562a34.722,34.722,0,0,1-13.7,1.0372l.1937-1.4993A33.1922,33.1922,0,0,0,322.6179,396.9256ZM286.1173,386.19a48.4525,48.4525,0,0,0,10.8428,7.67l-.691,1.3451a49.9492,49.9492,0,0,1-11.1825-7.9083Zm-64.2118-14.6311a124.19,124.19,0,0,0-3.59,12.9527l-1.4769-.3255a126.0765,126.0765,0,0,1,3.6335-13.1108Zm-5.7988,26.216c-.2527,2.2112-.4489,4.444-.5832,6.6378-.14,2.2649-.2341,4.5485-.2765,6.7876l-1.5122-.0283c.0429-2.261.1369-4.5666.2788-6.8528.1374-2.2187.3357-4.4785.59-6.7155Zm-.5542,26.8833c.2892,4.4594.77,8.9633,1.4277,13.3863l-1.4954.2225c-.6642-4.4643-1.15-9.01-1.4411-13.5111Zm3.949,26.6127c1.0192,4.3621,2.2267,8.727,3.592,12.977l-1.44.4622c-1.3775-4.2883-2.5963-8.6941-3.6235-13.0943Z"></path><path class="v" d="M1088.2074,387.5967a.95.95,0,0,0-.6241.7651.239.239,0,0,0,.0136.13c.0422.0879.1585.112.2564.1406.53.1581.7929.7071.9928,1.1981q.1549.381.31.7624a1.53,1.53,0,0,0,.2108.3981,1.5952,1.5952,0,0,0,.9255.4428,1.02,1.02,0,0,0,.85-.0743c.2938-.2363.2023-.678.0852-1.0254a4.2507,4.2507,0,0,0-1.224-2.1182C1089.58,387.8866,1088.7677,387.3971,1088.2074,387.5967Z"></path><path class="w" d="M1128.7,441.24c-.6908-3.8806-3.571-10.47-5.791-15.611-3.23-7.48-12.934-22.6242-17.5969-31.1545.3284.6217-7.9641,3.3581-7.8591,3.612,3.8654,9.352,12.5356,32.8127,12.2779,40.1292a.9791.9791,0,0,1-1.3106.9654c-18.5865-7.4605-36.701-16.1842-54.7974-24.7431q-3.98-1.8824-7.9527-3.7794s-1.6672,5.835,1.3917,13.5161c3.2516,8.165,11.32,16.2841,11.32,16.2841a117.65,117.65,0,0,0,20.479,10.1157c4.83,1.8353,34.9462,10.6828,42.6878,7.9505C1130.2194,455.4652,1129.7333,447.044,1128.7,441.24Z"></path><path class="v" d="M1104.5413,392.38c.0021-.3758.0863-.7576.1186-1.1376a6.9032,6.9032,0,0,0-.9084-3.5636,46.3821,46.3821,0,0,0-2.54-4.6249,3.7623,3.7623,0,0,0-1.535-1.5608,1.7163,1.7163,0,0,0-2.1688.7251c-.99-1.004-2.372-.2361-2.9245.6152-.3778-.4758-.726-.6055-1.7012-.096a2.42,2.42,0,0,0-.9429,1.2188,1.7317,1.7317,0,0,0-2.134.6563,5.4488,5.4488,0,0,0-.5773,3.0785,14.8552,14.8552,0,0,0,.9758,3.57,13.2494,13.2494,0,0,0,.7436,1.7163c.2528.4837.4875,1.1.9659,1.3057.4891.2106,1.0985.11,1.6431.2762a4.5665,4.5665,0,0,1,2.1165,1.101,6.9144,6.9144,0,0,1,1.7161,2.1478c.1105.3078.2957,1.0291.8462,1.1123,2.24.3387,6.881-2.155,7.2677-3.23a1.4909,1.4909,0,0,0-.1982-1.2291A4.6894,4.6894,0,0,1,1104.5413,392.38Z"></path><path class="s" d="M1106.7527,386.9066l-18.6889,5.0858a3.62,3.62,0,0,1-4.4391-2.4352l-2.6217-9.14a3.503,3.503,0,0,1,2.5-4.3237l18.6887-5.086a3.62,3.62,0,0,1,4.439,2.4353l2.6218,9.14A3.5034,3.5034,0,0,1,1106.7527,386.9066Zm-22.5442-8.3556a.955.955,0,0,0-.682,1.18l2.6217,9.14a.9869.9869,0,0,0,1.2109.6642l18.6882-5.0859a.9552.9552,0,0,0,.6819-1.1793l-2.6219-9.14a.987.987,0,0,0-1.21-.664Z"></path><polygon class="x" points="1118.614 339.517 1114.293 341.771 1124.761 378.262 1129.644 377.968 1118.614 339.517"></polygon><path class="y" d="M1063.0519,381.2512a36.8453,36.8453,0,0,1-3.14-10.9441c-.1064-1.2081-.018-2.0015.2988-2.11l-1.6357.5613c-.6709.23-.2875,3.63.85,7.5956s2.6168,7.0592,3.3109,6.9084l1.6908-.3678C1064.0991,382.9655,1063.6029,382.3354,1063.0519,381.2512Z"></path><path class="s" d="M1063.4258,375.2361c1.1745,4.0946,1.5654,7.5356.8806,7.6842-.6787.1479-2.1569-2.9893-3.3088-7.0054s-1.5595-7.4529-.9037-7.678C1060.7568,368.0092,1062.2514,371.1418,1063.4258,375.2361Z"></path><path class="s" d="M1060.6578,369.754l1.6617,5.7914a29.811,29.811,0,0,1-1.1788-6.0431Z"></path><path class="s" d="M1064.1456,381.9129l.7191-.0438a25.9224,25.9224,0,0,1-2.5452-6.3237Z"></path><path class="y" d="M1108.146,344.9778l-45.3153,23.6427c.0035.2214.0142.459.0364.7205a36.8408,36.8408,0,0,0,3.214,11.2051,7.5955,7.5955,0,0,0,.7407,1.2055l7.4286-.4474,32.3254-1.9469,11.2-.6744a90.9761,90.9761,0,0,1-6.2979-16.3527A90.0128,90.0128,0,0,1,1108.146,344.9778Z"></path><path class="s" d="M1074.7721,362.4206l-.326.17-7.5538,3.9411c.0042.2523.0164.5231.0415.8212a42,42,0,0,0,3.6638,12.7728,8.6653,8.6653,0,0,0,.8442,1.3741l8.468-.51A52.52,52.52,0,0,1,1074.7721,362.4206Z"></path><path class="s" d="M1114.2932,341.7708l-6.1472,3.207a90.0128,90.0128,0,0,0,3.3317,17.3524,90.9761,90.9761,0,0,0,6.2979,16.3527l6.9849-.4206Z"></path><path class="y" d="M1064.0272,375.0683a31.8813,31.8813,0,0,1-1.16-5.7273c-.0222-.2615-.0329-.4991-.0364-.7205l-.1389.0724-1.5511.8094a29.811,29.811,0,0,0,1.1788,6.0431,25.9224,25.9224,0,0,0,2.5452,6.3237l1.58-.0948.3773-.0227a7.5955,7.5955,0,0,1-.7407-1.2055A32.0284,32.0284,0,0,1,1064.0272,375.0683Z"></path><polygon class="y" points="1117.039 334.026 1118.133 337.838 1118.614 339.517 1129.644 377.968 1130.477 380.873 1131.219 383.459 1140.39 382.173 1139.022 377.404 1126.912 335.187 1125.544 330.418 1117.039 334.026"></polygon><path class="y" d="M1130.7448,356.9106c4.0536,14.13,4.2068,26.0247.4737,26.5482-3.595.5047-9.484-9.8027-13.2713-23.0048s-4.2429-25.0137-.9084-26.4283C1120.5008,332.5572,1126.6915,342.78,1130.7448,356.9106Z"></path><path class="y" d="M1140.231,354.284c4.2507,14.8187,4.254,27.3145.1587,27.8891-3.9376.5517-10.2295-10.2036-14.1886-24.0047s-4.309-26.2015-.6575-27.7507C1129.3416,328.8063,1135.98,339.465,1140.231,354.284Z"></path><path class="m" d="M1138.4034,354.5032c3.9605,13.807,4.7625,25.3593,1.8673,25.7924-2.8161.4211-8.0948-9.8861-11.86-23.0116s-4.7431-24.63-2.12-25.7219C1128.9884,330.4385,1134.4425,340.6967,1138.4034,354.5032Z"></path><path class="v" d="M1102.0509,386.108a12.8357,12.8357,0,0,0-.9029-3.1783c-.0306-.0833-.0762-.158-.1083-.24-3.297,1.8673-7.4487,2.8628-11.4972,3.5608.0015.0183.0008.0366.0028.0549a2.3542,2.3542,0,0,1-.195,1.1879c.5162.9522,1.0473,1.8789,1.6123,2.7436a3.4148,3.4148,0,0,0,1.42,1.39,1.6207,1.6207,0,0,0,2.0073-.6459c.9156.8942,2.1947.21,2.7061-.5477.3495.4237.6715.5392,1.5739.0859.1822-.0916.8314-.6843.8727-1.0853a1.6438,1.6438,0,0,0,1.9744-.5846A4.6978,4.6978,0,0,0,1102.0509,386.108Z"></path><path class="z" d="M1078.11,549.5455s-5.72,96.38-8.3736,119.6458-7.6536,140.5237-7.6536,140.5237l-7.6027,2.6172-6.9054-2.6172s-4.9011-85.7682-7.4013-104.4153-12.2475-124.1954-12.942-142.9528S1062.7484,487.29,1078.11,549.5455Z"></path><path class="aa" d="M1040.3917,556.0162s-10.6669,86.8394-14.6872,109.9087-17.15,143.2914-17.15,143.2914l-5.7352,3.8354-5.7462-1.8865s-1.6432-96.1973-3.04-114.96-1.9814-129.066-1.5693-147.8318S1028.7274,492.9636,1040.3917,556.0162Z"></path><path class="v" d="M1031.8925,405.5153c-2.3882.536-4.8267.6085-7.1083,1.05a24.4037,24.4037,0,0,1-6.7956.6814c-.002-3.8067-.2454-7.972-.1463-11.4756,4.6029,3.221,9.4255,1.4522,14.1043-.7528C1031.8538,398.4427,1031.7614,402.0713,1031.8925,405.5153Z"></path><path class="w" d="M995.4643,520.9333c4.7126-17.969,6.2871-41.7483,2.0525-55.0389-8.4293-26.4557-4.1369-45.1257,9.7-53.1949a45.863,45.863,0,0,1,8.4874-3.8676c.2409-.6108.4755-1.225.661-1.854a21.1866,21.1866,0,0,0,.8547-5.07c.0366-.8562,2.296-.0439,2.9407.0451a35.2912,35.2912,0,0,0,3.62.3086,29.7053,29.7053,0,0,0,9.008-1.3374,19.3641,19.3641,0,0,0,1.4788,6.2055c.0143.0324.0315.0621.0457.0943a44.2715,44.2715,0,0,1,18.1674,7.6331c15.71,14.4731,9.76,42.3608,18.0941,78.84,9.953,43.5613,7.5349,55.8478,7.5349,55.8478s-57.747,11.778-85.6453-1.1716C992.4643,548.3739,991.12,537.4976,995.4643,520.9333Z"></path><path class="o" d="M1027.3857,544.9563c-14.241-10.84-18.551-26.9022-18.625-44.2021-.03-7.0448.6628-14.059,1.0216-21.0877.4132-8.0971.11-9.5124-1.7468-16.6723-3.9337-15.1668-8.9868-30.8867-5.8261-46.4916-9.7347,9.4005-11.9974,26.4657-4.6926,49.3918,4.2346,13.2906,2.66,37.07-2.0525,55.0389-4.3443,16.5643-3,27.4406-3,27.4406,13.5453,6.2873,34.1179,6.74,51.71,5.5478A65.1931,65.1931,0,0,1,1027.3857,544.9563Z"></path><path class="v" d="M1043.1534,354.87a106.9636,106.9636,0,0,0,1.1187,17.0815c1.31,7.5769,4.5843,26.439-8.3165,27.2785s-19.0323-.2734-21.9437-3.4914-14.0906-22.8665-8.6332-33.0413S1033.9735,338.6558,1043.1534,354.87Z"></path><path class="ab" d="M1001.0357,367.4149c-.0113-5.6705,2.0231-12.3192,7.4355-14.01,1.1894-.3717,4.1781-5.9089,5.5391-7.0787a22.8526,22.8526,0,0,1,8.3614-4.5591c4.3512-1.299,11.3638-2.41,15.86-1.0181a11.3693,11.3693,0,0,1,7.7452,9.4717c.9813,7.9593-6.3647,9.1123-12.582,9.0722a30.9112,30.9112,0,0,0-11.0746,1.4788c-3.5076,1.3132-6.6995,3.9118-7.9194,7.4533-1.1237,3.2625-.47,6.7467.1789,10.1955a39.677,39.677,0,0,0,3.2178,7.26,7.7267,7.7267,0,0,0,6.2261,1.7107c3.2321-.4041,13.6156-4.0348,19.2111-3.0709l1.68-.4657a1.6535,1.6535,0,0,1,1.3914.0317c1.2565.8589,1.2963,4.7593.8473,6.172a11.7237,11.7237,0,0,1-2.1567,3.6191c-2.2835,3.7982-5.9113,5.1432-10.33,5.62-2.7607.2984-7.4989,1.55-10.1367.2376a5.2154,5.2154,0,0,1-2.6953-3.8468,25.9891,25.9891,0,0,1-2.6848-3.3047q-2.1411-2.6266-4.1017-5.395a15.5353,15.5353,0,0,1-2.3987-4.3952,16.816,16.816,0,0,1-.5135-2.9652q-.0726-.6419-.1442-1.283a6.2868,6.2868,0,0,1-.1927-.9656c-.1987-1.8874-.438-4.2594-2.2324-4.8765-1.91,3.2064-.7869,7.3156.6653,10.7534.1575.3725.3189.7484.4806,1.1251a2.4636,2.4636,0,0,1,.92.5954,6.9592,6.9592,0,0,1,1.2259,1.9092,40.9619,40.9619,0,0,1,3.4606,9.6522,1.1865,1.1865,0,0,1-.1187,1.0423c-.4108.4536-1.1491.0577-1.6106-.3449a32.2547,32.2547,0,0,1-4.416-4.4068c-.11-.1222-.2168-.2464-.3157-.37A40.5442,40.5442,0,0,1,1001.0357,367.4149Z"></path><path class="v" d="M1062.3228,804.1643c0,1.7884-.181,6.8988-.1659,7.342-3.5614,4.5859-9.6314,2.6946-14.4623-.0781-.0205-.5615-.28-4.371-.3068-4.9386C1052.2731,808.0417,1057.7848,806.9365,1062.3228,804.1643Z"></path><path class="v" d="M1009.0148,805.0254c.0034.2926-.4631,5.3175-.4576,5.6115,0,0-5.19,3.94-9.5995,2.7593-.6231-.1665-1.2332-.3888-1.8451-.6011-.0888-.8456-.033-6.3134-.113-7.2029A17.2152,17.2152,0,0,0,1009.0148,805.0254Z"></path><path class="z" d="M987.2384,821.6489c1.8478-1.5,4.7152-2.17,6.6056-3.6779.9272-.74,3.0883-1.9931,3.1649-2.8212a32.9429,32.9429,0,0,0,.058-3.5106,21.2348,21.2348,0,0,0,11.5336-1.5877c-.01,1.1392-.1037,1.8367-.095,2.9308a41.9965,41.9965,0,0,1,1.1806,5.4615c.3384,2.9416.8356,6.62-1.3919,8.9913-1.6541,1.7606-4.32,1.93-6.7362,1.9143-2.6939-.0182-10.0042.3818-10.8665.2978C988.0723,829.3916,979.361,828.0415,987.2384,821.6489Z"></path><path class="ac" d="M1009.492,825.4608a5.6792,5.6792,0,0,1-1.1978,1.9743c-1.6541,1.7608-4.32,1.93-6.7362,1.9143-2.6939-.0182-13.8058.301-14.6681.2169-1.8356-.1791-2.8545-.8177-2.8677-3.4308C993.6336,822.4481,997.9793,827.8429,1009.492,825.4608Z"></path><path class="z" d="M1047.639,811.01c1.05.2834,11.2951.8234,14.559-1.3807-.0191,1.5679-.0487,3.5377-.0487,3.5377a153.67,153.67,0,0,1,28.76,6.052c14.5348,4.69,15.3251,9.7708-4.4561,8.647-35.6285.7867-38.1012.899-38.2136-7.9324C1048.2192,818.3159,1047.9583,813.22,1047.639,811.01Z"></path><path class="ac" d="M1096.5675,824.2949a4.1854,4.1854,0,0,0,3.1058-1.23c4.6268,3.1819,1.0828,5.6134-13.22,4.8008-17.6877.39-29.88.8017-34.9927-.1519-3.5759-.667-2.321-2.0973-2.8773-4.2631C1064.5731,823.8107,1080.5515,824.2827,1096.5675,824.2949Z"></path><path class="w" d="M1009.5683,410.9183c-9.3879-.1939-21.3963,14.67-23.051,28.8876-.1447,1.2429-1.2567,6.6267-2.6351,11.92-3.6651,13.6-10.3667,27.1774-14.5537,32.1864-9.5155,11.3838-33.43,5.8455-47.1153,1.57-.7828,2.5139-.7259,5.76-.2247,10.0275,2.1081,1.0732,4.2293,2.1215,6.373,3.1222a120.2472,120.2472,0,0,0,16.1039,6.2836A62.4417,62.4417,0,0,0,962.391,507.88a32.501,32.501,0,0,0,16.8205-4.271,28.39,28.39,0,0,0,6.4291-5.3261c7.6988-8.5328,14.7468-23.3436,19.3809-37.3854,3.938-8.0455,8.1767-15.7459,9.943-20.813C1021.2155,422.1485,1017.9508,411.0915,1009.5683,410.9183Z"></path><polygon class="h" points="904.965 367.57 924.16 325.89 943.479 367.504 904.965 367.57"></polygon><polygon class="i" points="918.707 335.826 924.16 325.89 929.648 335.807 918.707 335.826"></polygon><path class="o" d="M913.9567,753.5313h21.2144a8.65,8.65,0,0,1,8.65,8.65v58.6393a8.65,8.65,0,0,1-8.65,8.65H913.9568a8.65,8.65,0,0,1-8.65-8.65v-58.64a8.65,8.65,0,0,1,8.65-8.65Z" transform="translate(-1.3418 1.5701) rotate(-0.0972)"></path><rect class="g" x="905.1124" y="367.5586" width="12.838" height="396.3175"></rect><rect class="p" x="917.9504" y="367.5367" width="12.838" height="396.3175"></rect><rect class="r" x="930.7883" y="367.5148" width="12.8381" height="396.3177"></rect><rect class="n" x="905.2581" y="758.0115" width="38.5139" height="9.3623" transform="translate(-1.2958 1.5734) rotate(-0.0974)"></rect><path class="v" d="M898.6217,489.7018c.1088-.6756.1592-2.7879.8618-3.3932s3.08-.7954,4.4655-.7133a15.7486,15.7486,0,0,1,2.8234.3679c1.52.4418,3.3374.6873,3.9876,1.9507.3417,1.0721.005,1.5664-1.0353,1.8022,1.2126.2255,2.6155,2.8167-.23,3.5146,2.9091.7676,2.636,3.2288-.4463,4.0187,1.6044-.4111,1.1241,2.776-.3179,3.2863-2.5678.9081-4.6146,1.2313-6.392.585-1.7042-.62-1.9389-2.2087-2.1545-3.2315C899.268,495.5731,898.3,491.695,898.6217,489.7018Z"></path><path class="t" d="M320.8315,633.7129H304.6492a1.642,1.642,0,0,1-1.4074-1.2115c-.1908-.6693.13-1.2117.7165-1.2117h16.1823a1.6418,1.6418,0,0,1,1.4075,1.2117C321.7389,633.17,321.4181,633.7129,320.8315,633.7129Z"></path><path class="ad" d="M363.07,633.7129H332.6487a1.6419,1.6419,0,0,1-1.4075-1.2115c-.1908-.6693.13-1.2117.7166-1.2117H362.38a1.642,1.642,0,0,1,1.4075,1.2117C363.9778,633.17,363.657,633.7129,363.07,633.7129Z"></path><path class="s" d="M375.5515,628.3859H359.37a1.6416,1.6416,0,0,1-1.4074-1.2115c-.1909-.6692.13-1.2116.7165-1.2116h16.1818a1.6417,1.6417,0,0,1,1.4075,1.2116C376.4589,627.8435,376.1381,628.3859,375.5515,628.3859Z"></path><path class="ae" d="M379.4871,640.4153H349.0649a1.6417,1.6417,0,0,1-1.4074-1.2116c-.1909-.6691.13-1.2115.7165-1.2115h30.4222a1.6418,1.6418,0,0,1,1.4074,1.2115C380.3944,639.8729,380.0736,640.4153,379.4871,640.4153Z"></path><path class="af" d="M293.3925,668.4484H277.21a1.6418,1.6418,0,0,1-1.4075-1.2116c-.1909-.6692.13-1.2115.7165-1.2115h16.1822a1.6415,1.6415,0,0,1,1.4075,1.2115C294.3,667.906,293.9792,668.4484,293.3925,668.4484Z"></path><path class="ad" d="M307.6325,668.4484H277.21a1.6418,1.6418,0,0,1-1.4075-1.2116c-.1909-.6692.13-1.2115.7165-1.2115h30.4222a1.6417,1.6417,0,0,1,1.4075,1.2115C308.54,667.906,308.2191,668.4484,307.6325,668.4484Z"></path><path class="ag" d="M307.6333,668.4484H277.21a1.6417,1.6417,0,0,1-1.4074-1.2116c-.1909-.6692.13-1.2115.7164-1.2115h30.423a1.6415,1.6415,0,0,1,1.4075,1.2115C308.5407,667.906,308.22,668.4484,307.6333,668.4484Z"></path><path class="t" d="M329.0214,608.5941H260.1439a1.6418,1.6418,0,0,1-1.4075-1.2115c-.1909-.6693.13-1.2117.7165-1.2117H328.33a1.6419,1.6419,0,0,1,1.4076,1.2117C329.9288,608.0517,329.608,608.5941,329.0214,608.5941Z"></path><path class="t" d="M302.6406,614.4437H261.8118a1.6422,1.6422,0,0,1-1.4076-1.2116c-.1907-.6691.13-1.2115.7167-1.2115H301.95a1.6418,1.6418,0,0,1,1.4074,1.2115C303.548,613.9012,303.2271,614.4437,302.6406,614.4437Z"></path><path class="t" d="M310.3915,641.6268H269.5627a1.6417,1.6417,0,0,1-1.4076-1.2116c-.1908-.6691.13-1.2114.7167-1.2114h40.8288a1.6419,1.6419,0,0,1,1.4074,1.2114C311.2988,641.0845,310.9779,641.6268,310.3915,641.6268Z"></path><path class="t" d="M350.304,620.809H263.6267a1.642,1.642,0,0,1-1.4075-1.2116c-.1908-.6691.13-1.2116.7166-1.2116H349.613a1.6417,1.6417,0,0,1,1.4075,1.2116C351.2114,620.2666,350.8906,620.809,350.304,620.809Z"></path><path class="t" d="M342.2062,653.6694h-69.21a1.6418,1.6418,0,0,1-1.4076-1.2115c-.1907-.6692.13-1.2116.7167-1.2116h69.21a1.6419,1.6419,0,0,1,1.4075,1.2116C343.1135,653.127,342.7928,653.6694,342.2062,653.6694Z"></path><path class="t" d="M344.525,661.8019h-69.21a1.6418,1.6418,0,0,1-1.4075-1.2115c-.1908-.6692.13-1.2117.7166-1.2117h69.21a1.6418,1.6418,0,0,1,1.4075,1.2117C345.4324,661.26,345.1116,661.8019,344.525,661.8019Z"></path><path class="t" d="M339.2983,627.1744H265.4417a1.642,1.642,0,0,1-1.4075-1.2116c-.1908-.6692.13-1.2116.7166-1.2116h73.8566a1.6417,1.6417,0,0,1,1.4075,1.2116C340.2057,626.632,339.8849,627.1744,339.2983,627.1744Z"></path><path class="t" d="M298.7233,633.8842H267.355a1.6418,1.6418,0,0,1-1.4076-1.2116c-.1908-.6692.13-1.2115.7166-1.2115h31.3685a1.6417,1.6417,0,0,1,1.4075,1.2115C299.6308,633.3419,299.31,633.8842,298.7233,633.8842Z"></path><path class="ae" d="M370.5307,614.7015H328.6371A1.6415,1.6415,0,0,1,327.23,613.49c-.1908-.6691.13-1.2114.7165-1.2114H369.84a1.6416,1.6416,0,0,1,1.4076,1.2114C371.4382,614.1593,371.1175,614.7015,370.5307,614.7015Z"></path><path class="ah" d="M487.39,326.7334v23.6121s.7871,12.9866,32.6633,12.9866S553.11,348.3778,553.11,348.3778V315.9113H487.39Z"></path><circle class="r" cx="455.8316" cy="336.4734" r="2.4104"></circle><path class="r" d="M454.2591,338.4373l-2.4028,28.81a.6566.6566,0,0,0,.92.6552l.3387-.15a.6567.6567,0,0,1,.75.1574l.4185.4577a.6567.6567,0,0,0,.9162.0517l.3031-.2645a.6566.6566,0,0,1,.8877.0225l.2618.2528a.6565.6565,0,0,0,.8782.0307l.4531-.38a.6565.6565,0,0,1,.7957-.0369h0a.6566.6566,0,0,0,1.0278-.5978l-2.6109-29.4655a.6567.6567,0,0,0-.1787-.3951l-.5893-.6183a.6567.6567,0,0,0-.9467-.0042l-1.0389,1.0712A.6564.6564,0,0,0,454.2591,338.4373Z"></path><path class="r" d="M452.3665,313.3284,520.37,301.9592a.5537.5537,0,0,1,.2009,0l67.1861,11.3659c.8485.2105.607,2.0547.014,2.1806l-67.6023,14.3513a.5541.5541,0,0,1-.23,0l-67.5872-14.3481C451.7577,315.3832,451.4835,313.4867,452.3665,313.3284Z"></path><rect class="r" x="455.1046" y="314.5088" width="1.4541" height="19.505"></rect><path class="p" d="M452.3665,313.3284,520.37,300.8652a.5537.5537,0,0,1,.2009,0l67.1861,12.46a.5539.5539,0,0,1,.014,1.0865l-67.6023,14.3514a.5541.5541,0,0,1-.23,0l-67.5872-14.3482A.5539.5539,0,0,1,452.3665,313.3284Z"></path><polygon class="e" points="330.938 287.152 441.948 232.703 352.691 265.999 330.938 287.152"></polygon><path class="h" d="M319.7453,228.24s97.8439,5.4936,122.203,4.4626c0,0-61.2976,56.1943-77.09,76.56l-12.1681-43.2643-6.4722-12.0663Z"></path><polygon class="a" points="330.938 287.152 352.691 265.999 441.948 232.703 346.218 253.932 330.938 287.152"></polygon><polygon class="c" points="428.077 749.935 152.833 749.935 137.583 700.283 412.826 700.283 428.077 749.935"></polygon><polygon class="n" points="372.982 742.362 156.606 742.362 146.007 707.856 362.384 707.856 372.982 742.362"></polygon><path class="n" d="M395.0059,710.4585c-5.8851,0-9.2163,4.7444-7.4253,10.5755a14.6343,14.6343,0,0,0,3.62,5.886l-5.5839,7.6032.006.0049a2.0875,2.0875,0,0,0,.843,2.6029,1.91,1.91,0,0,0,2.641.0427l.0033.003.0191-.0273a.2187.2187,0,0,0,.0169-.0184c.0053-.0074.0073-.0153.0121-.0228l5.5094-7.4991a13.7183,13.7183,0,0,0,6.8349,1.9989c5.8857,0,9.2176-4.7441,7.4269-10.574S400.8917,710.4585,395.0059,710.4585Zm5.6127,18.273c-4.2835,0-8.8305-3.4539-10.134-7.6975s1.1216-7.6984,5.4051-7.6984,8.831,3.4537,10.1348,7.6984S404.9031,728.7315,400.6186,728.7315Z"></path><path class="p" d="M870.03,769.7858h-221.11v3.9953h2.3049a11.4336,11.4336,0,0,1,11.4336,11.4337v8.34a11.4336,11.4336,0,0,1-11.4336,11.4337h-2.3049v3.9953H870.03a14.3613,14.3613,0,0,0,14.3613-14.3613V784.147A14.3613,14.3613,0,0,0,870.03,769.7858Z"></path><path class="ai" d="M749.2377,773.791H651.8459c4.3522,1.7366,8.8021,5.9545,8.8021,10.8913v8.5658c0,6.4858-4.0714,11.7435-8.8021,11.7435h97.3918A11.48,11.48,0,0,0,760.7662,793.56v-8.3382A11.48,11.48,0,0,0,749.2377,773.791Z"></path><path class="aj" d="M660.648,788.775v4.4731c0,6.4858-4.0714,11.7435-8.8022,11.7435h97.3919A11.48,11.48,0,0,0,760.7662,793.56V788.775Z"></path><path class="ak" d="M750.5858,769.7923H648.9205v4.0053H749.2377a11.48,11.48,0,0,1,11.5285,11.4312v8.3381a11.48,11.48,0,0,1-11.5285,11.4313H648.9205v3.992H750.5858a14.4228,14.4228,0,0,0,14.4835-14.3613V784.1536A14.4229,14.4229,0,0,0,750.5858,769.7923Z"></path><path class="ak" d="M870.03,769.7858H821.5969c-1.0442,6.2625-4.49,12.0017-8.4649,16.9513-6.844,8.5226-15.7285,15.8175-24.955,22.2465H870.03a14.3613,14.3613,0,0,0,14.3613-14.3613V784.147A14.3613,14.3613,0,0,0,870.03,769.7858Z"></path><path class="m" d="M776.4525,769.7924H771.376a15.2649,15.2649,0,0,1,9.2551,14.0327v11.1323a15.2648,15.2648,0,0,1-9.2552,14.0328h4.4008c7.9315,0,12.4-6.43,12.4-14.3613V784.1537C788.177,776.2222,784.384,769.7924,776.4525,769.7924Z"></path><path class="al" d="M714.6412,802.6268s3.4354-.7891,3.4354-3.4924V788.775h-9.63v10.0215c0,3.0412-3.21,3.83-3.21,3.83s5.0863.2964,7.4516-2.4069A6.4341,6.4341,0,0,1,714.6412,802.6268Z"></path><path class="am" d="M653.7728,732.9682a5.6484,5.6484,0,0,0,5.5341,3.3567h221.22v-21.44h-221.22c-3.0564,0-5.6531,3.3928-7,7.0022C652.3065,721.8875,650.7976,726.5074,653.7728,732.9682Z"></path><path class="an" d="M716.4748,714.8853a83.425,83.425,0,0,1-7.8986,4.83c-5.2162,2.8948-10.4074,5.8286-15.6816,8.618q-7.8843,4.17-15.9438,7.9916h203.576v-21.44Z"></path><path class="ab" d="M748.27,731.6688c.2449,3.0319,1.5079,4.6561,7.4619,4.6561h126.96v-2.15h-2.1651V716.7985h2.1651v-1.9132h-126.96c-5.954,0-6.6757,1.8408-7.3974,6.3886A54.9228,54.9228,0,0,0,748.27,731.6688Z"></path><path class="ai" d="M750.8758,730.4015c.2228,2.4574,1.3721,3.7738,6.79,3.7738H881.2486V716.7985H757.666c-5.4181,0-6.0748,1.492-6.7316,5.1779A39.68,39.68,0,0,0,750.8758,730.4015Z"></path><path class="aj" d="M751.4158,722.8392c-.2012,0-.39-.01-.5741-.0236a42.6405,42.6405,0,0,0,.034,7.5859c.2229,2.4573,1.3722,3.7738,6.79,3.7738H881.2486V722.8392Z"></path><path class="aa" d="M671.5255,733.2934c-3.1067-6.7461-1.5311-11.57-1.5311-11.57,1.102-2.9522,3.0064-5.7574,5.313-6.838h-8.206c-3.0563,0-5.653,3.3928-7,7.0022,0,0-1.5089,4.62,1.4663,11.0807a5.6485,5.6485,0,0,0,5.5341,3.3567h7.5364A5.73,5.73,0,0,1,671.5255,733.2934Z"></path><path class="aa" d="M740.91,733.2934c-3.1067-6.7461-1.5311-11.57-1.5311-11.57,1.102-2.9522,3.0065-5.7574,5.3131-6.838H736.486c-3.0563,0-5.653,3.3928-7,7.0022,0,0-1.5089,4.62,1.4664,11.0807a5.6482,5.6482,0,0,0,5.534,3.3567h7.5364A5.73,5.73,0,0,1,740.91,733.2934Z"></path><path class="ao" d="M660.5121,764.5481c.77,2.7861,2.32,5.2377,5.1823,5.2377H874.4909V736.3325H665.6944c-2.8621,0-5.2938,5.2939-6.5555,10.9258C659.1389,747.2583,657.7259,754.4671,660.5121,764.5481Z"></path><path class="l" d="M727.4741,736.3325c-10.3083,14.4836-24.0649,25.5125-39.6209,33.4533H874.4909V736.3325Z"></path><path class="m" d="M749.0032,762.5206c.2293,4.7308,1.412,7.2652,6.9875,7.2652H876.5183v-1.2672l-8.7857-.1308-1.8585-30.7037,10.6442.053v-1.4046H755.9907c-5.5755,0-6.2513,2.8722-6.9272,9.9684A142.537,142.537,0,0,0,749.0032,762.5206Z"></path><path class="ai" d="M750.5817,761.73c.21,4.3354,1.294,6.6579,6.4035,6.6579H875.1667V737.73H756.9852c-5.1095,0-5.7289,2.6322-6.3482,9.1353A130.6031,130.6031,0,0,0,750.5817,761.73Z"></path><path class="aj" d="M751.091,748.3878a3.8275,3.8275,0,0,1-.5414-.0416c-.1145,2.3186-.2679,7.1958.032,13.3837.21,4.3354,1.2941,6.6579,6.4036,6.6579H875.1667v-20Z"></path><polygon class="u" points="771.591 748.346 771.591 764.603 776.389 761.393 781.188 764.603 781.188 748.346 771.591 748.346"></polygon><rect class="h" x="673.1459" y="744.7802" width="63.5275" height="16.2199" rx="4.7308"></rect><path class="g" d="M680.5565,750.0727a.4756.4756,0,1,1,0-.9511h4.7875a.4756.4756,0,1,1,0,.9511h-1.88v6.1213a.5084.5084,0,1,1-1.0167,0v-6.1213Z"></path><path class="g" d="M691.4208,749.581a.5084.5084,0,1,1,1.0167,0v4.4819a2.7552,2.7552,0,0,1-5.5092,0V749.581a.5082.5082,0,1,1,1.0164,0v4.4819a1.7382,1.7382,0,0,0,3.4761,0Z"></path><path class="g" d="M694.0215,750.0727a.4756.4756,0,1,1,0-.9511h4.7875a.4756.4756,0,1,1,0,.9511h-1.88v6.1213a.5084.5084,0,1,1-1.0167,0v-6.1213Z"></path><path class="g" d="M703.5305,749.0345a3.8647,3.8647,0,1,1-3.8041,3.87A3.8188,3.8188,0,0,1,703.5305,749.0345Zm0,6.7444a2.8817,2.8817,0,1,0-2.7874-2.8749A2.8074,2.8074,0,0,0,703.5305,755.7789Z"></path><path class="g" d="M710.8745,753.8333h-.9728v2.3607a.5084.5084,0,1,1-1.0167,0v-6.6348a.437.437,0,0,1,.4263-.4376h2.47a2.1561,2.1561,0,0,1,2.23,2.3615,2.1126,2.1126,0,0,1-1.9675,2.3172l1.4754,2.0987a.5064.5064,0,1,1-.8306.58Zm-.9619-3.7606v2.8095h1.7928a1.4166,1.4166,0,0,0,.0436-2.8095Z"></path><path class="g" d="M716.5573,756.194a.5084.5084,0,1,1-1.0167,0v-6.613a.5084.5084,0,1,1,1.0167,0Z"></path><path class="g" d="M724.11,756.0086a.4984.4984,0,0,1-.2842.6665.5057.5057,0,0,1-.656-.2949l-.623-1.6394h-3.1917l-.6342,1.6394a.5054.5054,0,0,1-.6557.2949.4981.4981,0,0,1-.2841-.6665l2.4485-6.4494a.7087.7087,0,0,1,.7-.4917h.0544a.6916.6916,0,0,1,.6778.4917Zm-1.913-2.1865-1.246-3.53-1.2461,3.53Z"></path><path class="g" d="M725.836,756.6534a.53.53,0,0,1-.5138-.5247V749.581a.5084.5084,0,1,1,1.0167,0v6.1214h2.6452a.4755.4755,0,1,1,0,.951Z"></path><path class="w" d="M635.3511,826.1635a5.2884,5.2884,0,0,0,5.1823,3.1536H887.9449V809.175H640.5334c-2.8621,0-5.2937,3.1874-6.5554,6.5783C633.978,815.7533,632.565,820.0937,635.3511,826.1635Z"></path><path class="o" d="M740.9281,809.175c-10.3083,8.7205-24.0649,15.361-39.6209,20.1421H887.9449V809.175Z"></path><path class="u" d="M762.4572,824.9428c.2293,2.8483,1.412,4.3743,6.9875,4.3743H889.9724v-.763l-8.7858-.0788-1.8585-18.4865,10.6443.0319v-.8457H769.4447c-5.5755,0-6.2513,1.7293-6.9272,6.0019A51.7711,51.7711,0,0,0,762.4572,824.9428Z"></path><path class="ai" d="M764.0357,824.4666c.21,2.61,1.294,4.0087,6.4035,4.0087H888.6207V810.0167H770.4392c-5.11,0-5.7289,1.5848-6.3482,5.5A47.4353,47.4353,0,0,0,764.0357,824.4666Z"></path><path class="aj" d="M764.545,816.4334c-.19,0-.3682-.01-.5414-.025a50.9941,50.9941,0,0,0,.032,8.0582c.21,2.61,1.2941,4.0087,6.4036,4.0087H888.6207V816.4334Z"></path></svg>